<svg width="36" height="29" viewBox="0 0 36 29" fill="none" xmlns="http://www.w3.org/2000/svg">
<path d="M33.4286 25.6071C33.4286 25.9487 33.1272 26.25 32.7857 26.25H3.21429C2.87277 26.25 2.57143 25.9487 2.57143 25.6071V10.1786C2.9933 10.6607 3.45536 11.1027 3.95759 11.5045C6.83036 13.7143 9.72322 15.9643 12.5156 18.2946C14.0223 19.5603 15.8906 21.1071 17.9799 21.1071H18H18.0201C20.1094 21.1071 21.9777 19.5603 23.4844 18.2946C26.2768 15.9643 29.1696 13.7143 32.0424 11.5045C32.5446 11.1027 33.0067 10.6607 33.4286 10.1786V25.6071ZM33.4286 4.49329C33.4286 6.20088 31.7813 8.43079 30.4754 9.45535C27.7835 11.5647 25.0915 13.6942 22.4196 15.8237C21.3549 16.6875 19.4263 18.5357 18.0201 18.5357H18H17.9799C16.5737 18.5357 14.6451 16.6875 13.5804 15.8237C10.9085 13.6942 8.21652 11.5647 5.52455 9.45535C3.71652 8.02901 2.57143 6.04017 2.57143 3.74999C2.57143 3.40847 2.87277 3.10713 3.21429 3.10713H32.7857C33.5491 3.10713 33.4286 3.99106 33.4286 4.49329ZM36 3.74999C36 1.98213 34.5536 0.535706 32.7857 0.535706H3.21429C1.44643 0.535706 0 1.98213 0 3.74999V25.6071C0 27.375 1.44643 28.8214 3.21429 28.8214H32.7857C34.5536 28.8214 36 27.375 36 25.6071V3.74999Z" fill="white"/>
</svg>
