<svg width="31" height="32" viewBox="0 0 31 32" fill="none" xmlns="http://www.w3.org/2000/svg">
<path d="M25.7858 23.9643C25.7858 25.3705 24.6206 26.5357 23.2144 26.5357C21.8081 26.5357 20.643 25.3705 20.643 23.9643C20.643 22.558 21.8081 21.3928 23.2144 21.3928C24.6206 21.3928 25.7858 22.558 25.7858 23.9643ZM10.3572 8.5357C10.3572 9.94195 9.19207 11.1071 7.78582 11.1071C6.37957 11.1071 5.21439 9.94195 5.21439 8.5357C5.21439 7.12945 6.37957 5.96427 7.78582 5.96427C9.19207 5.96427 10.3572 7.12945 10.3572 8.5357ZM30.9287 23.9643C30.9287 19.7053 27.4733 16.25 23.2144 16.25C18.9555 16.25 15.5001 19.7053 15.5001 23.9643C15.5001 28.2232 18.9555 31.6786 23.2144 31.6786C27.4733 31.6786 30.9287 28.2232 30.9287 23.9643ZM29.0001 2.10713C29.0001 1.404 28.4175 0.821411 27.7144 0.821411H24.5001C24.0983 0.821411 23.7166 1.0223 23.4756 1.34373L2.26127 29.6294C2.10055 29.8504 2.0001 30.1116 2.0001 30.3928C2.0001 31.096 2.58269 31.6786 3.28582 31.6786H6.5001C6.90189 31.6786 7.28359 31.4777 7.52466 31.1562L28.7389 2.87052C28.8997 2.64954 29.0001 2.38838 29.0001 2.10713ZM15.5001 8.5357C15.5001 4.27677 12.0447 0.821411 7.78582 0.821411C3.52689 0.821411 0.0715332 4.27677 0.0715332 8.5357C0.0715332 12.7946 3.52689 16.25 7.78582 16.25C12.0447 16.25 15.5001 12.7946 15.5001 8.5357Z" fill="white"/>
</svg>
