<svg width="40" height="43" viewBox="0 0 40 43" fill="none" xmlns="http://www.w3.org/2000/svg">
<path d="M15.9933 23.8724V22.5867C15.9933 22.2251 16.2746 21.9439 16.6362 21.9439H30.779C31.1406 21.9439 31.4219 22.2251 31.4219 22.5867V23.8724C31.4219 24.234 31.1406 24.5153 30.779 24.5153H16.6362C16.2746 24.5153 15.9933 24.234 15.9933 23.8724Z" fill="white"/>
<path d="M16.6362 27.0867H30.779C31.1406 27.0867 31.4219 27.368 31.4219 27.7296V29.0153C31.4219 29.3769 31.1406 29.6581 30.779 29.6581H16.6362C16.2746 29.6581 15.9933 29.3769 15.9933 29.0153V27.7296C15.9933 27.368 16.2746 27.0867 16.6362 27.0867Z" fill="white"/>
<path d="M16.6362 32.2296H30.779C31.1406 32.2296 31.4219 32.5108 31.4219 32.8724V34.1581C31.4219 34.5198 31.1406 34.801 30.779 34.801H16.6362C16.2746 34.801 15.9933 34.5198 15.9933 34.1581V32.8724C15.9933 32.5108 16.2746 32.2296 16.6362 32.2296Z" fill="white"/>
<path fill-rule="evenodd" clip-rule="evenodd" d="M8.27901 15.8148C4.18382 15.8148 0.864014 12.495 0.864014 8.3998C0.864014 4.30461 4.18382 0.984802 8.27901 0.984802C11.723 0.984802 14.6186 3.33277 15.4524 6.51529H28.2076C29.2723 6.51529 30.7589 7.13806 31.5022 7.88136L37.7701 14.1492C38.5134 14.8925 39.1362 16.3791 39.1362 17.4439V40.5867C39.1362 41.6515 38.2723 42.5153 37.2076 42.5153H10.2076C9.14285 42.5153 8.27901 41.6515 8.27901 40.5867L8.27901 15.8148ZM10.8504 15.3568C13.4729 14.3871 15.3971 11.977 15.6626 9.08672H26.279V17.4439C26.279 18.5086 27.1429 19.3724 28.2076 19.3724H36.5647V39.9439H10.8504V15.3568ZM29.6741 9.6894C29.5335 9.54877 29.192 9.36797 28.8504 9.24743V16.801H36.404C36.2835 16.4595 36.1027 16.118 35.9621 15.9773L29.6741 9.6894ZM9.27901 9.39984H13.279V7.39984H9.27901V3.39984H7.27901V7.39984H3.27901V9.39984H7.27901V13.3998H9.27901V9.39984Z" fill="white"/>
</svg>
